<svg width="110" height="110" viewBox="0 0 110 110" fill="none" xmlns="http://www.w3.org/2000/svg">
<path d="M63.9601 38.6801C62.7726 37.4644 61.3541 36.4984 59.7879 35.8389C58.2217 35.1794 56.5394 34.8396 54.8401 34.8396C53.1407 34.8396 51.4584 35.1794 49.8922 35.8389C48.326 36.4984 46.9075 37.4644 45.7201 38.6801L27.4801 56.9201C26.3116 58.1124 25.661 59.7176 25.6694 61.3869C25.6778 63.0562 26.3447 64.6547 27.5251 65.8351C28.7055 67.0155 30.304 67.6824 31.9733 67.6908C33.6426 67.6992 35.2478 67.0485 36.4401 65.8801L54.6801 47.6401L72.9201 65.8801C74.1123 67.0485 75.7175 67.6992 77.3868 67.6908C79.0561 67.6824 80.6546 67.0155 81.835 65.8351C83.0154 64.6547 83.6823 63.0562 83.6907 61.3869C83.6992 59.7176 83.0485 58.1124 81.8801 56.9201L63.9601 38.6801Z" fill="#203836"/>
<path d="M55 0.600116C44.2407 0.600116 33.723 3.79062 24.777 9.76817C15.8309 15.7457 8.85836 24.2418 4.74095 34.1821C0.623546 44.1224 -0.453755 55.0605 1.64528 65.613C3.74432 76.1656 8.92541 85.8587 16.5334 93.4667C24.1414 101.075 33.8345 106.256 44.3871 108.355C54.9397 110.454 65.8777 109.377 75.818 105.259C85.7583 101.142 94.2544 94.1692 100.232 85.2231C106.209 76.2771 109.4 65.7594 109.4 55.0001C109.406 47.8545 108.003 40.7779 105.271 34.1752C102.539 27.5724 98.5324 21.573 93.4798 16.5204C88.4271 11.4677 82.4277 7.46084 75.825 4.72907C69.2222 1.9973 62.1456 0.594224 55 0.600116ZM55 96.6001C46.7723 96.6001 38.7294 94.1603 31.8883 89.5893C25.0472 85.0182 19.7152 78.5211 16.5666 70.9197C13.418 63.3183 12.5942 54.954 14.1993 46.8844C15.8045 38.8148 19.7665 31.4023 25.5844 25.5845C31.4022 19.7666 38.8146 15.8046 46.8842 14.1994C54.9539 12.5943 63.3182 13.4181 70.9196 16.5667C78.521 19.7153 85.0181 25.0473 89.5891 31.8884C94.1602 38.7295 96.6 46.7724 96.6 55.0001C96.611 60.4662 95.5424 65.8806 93.4557 70.9327C91.369 75.9848 88.3052 80.5751 84.4401 84.4402C80.575 88.3053 75.9847 91.3691 70.9326 93.4558C65.8805 95.5425 60.4661 96.6111 55 96.6001Z" fill="#203836"/>
</svg>
