<svg width="64" height="64" viewBox="0 0 64 64" fill="none" xmlns="http://www.w3.org/2000/svg">
<path d="M43.4313 15.1934H7.33362V54.141H17.3806V41.47H36.6326L45.4166 54.141H56.6666L46.9806 41.4117C49.989 40.9447 52.1546 39.835 53.4783 38.0834C54.8016 36.3317 55.4636 33.5287 55.4636 29.7917V26.872C55.4636 24.653 55.2233 22.9014 54.802 21.5584C54.3806 20.2154 53.6586 19.0474 52.636 17.9964C51.553 17.0037 50.35 16.303 48.906 15.836C47.462 15.4274 45.657 15.1934 43.4313 15.1934ZM41.807 32.8867H17.3806V23.777H41.807C43.1903 23.777 44.153 24.0104 44.6343 24.4194C45.1156 24.828 45.4166 25.587 45.4166 26.6967V29.9667C45.4166 31.1344 45.1156 31.8934 44.6343 32.302C44.153 32.7107 43.1906 32.886 41.807 32.886V32.8867Z" stroke="#203836" stroke-width="4" stroke-linecap="round" stroke-linejoin="round"/>
<path d="M54.643 14.526C56.483 14.526 57.9756 13.0337 57.9756 11.1927C57.9756 9.35171 56.483 7.85938 54.643 7.85938C52.8016 7.85938 51.309 9.35171 51.309 11.1927C51.309 13.0337 52.8016 14.526 54.643 14.526Z" fill="#203836"/>
</svg>
