<svg width="64" height="64" viewBox="0 0 64 64" fill="none" xmlns="http://www.w3.org/2000/svg">
<g clip-path="url(#clip0_22_222)">
<path d="M51.2 11.7334L7.73335 28.5334C4.80001 29.6001 4.80001 31.4667 7.20001 32.0001L18.1333 35.4667L22.4 48.2667C22.9333 49.6001 22.6667 50.1334 24 50.1334C25.0667 50.1334 25.6 49.6001 26.1333 49.0667C26.4 48.8001 28.8 46.4001 31.4667 43.7334L42.6667 52.0001C44.8 53.0667 46.1333 52.5334 46.6667 50.1334L54.1333 15.2001C54.9333 12.2667 53.0667 10.6667 51.2 11.7334ZM45.6 19.7334L24.8 38.6667L24 47.4667L19.7333 34.6667L44.2667 19.2001C45.3333 18.4001 46.4 18.9334 45.6 19.7334Z" fill="#203836"/>
</g>
<defs>
<clipPath id="clip0_22_222">
<rect width="64" height="64" fill="white"/>
</clipPath>
</defs>
</svg>
