<svg width="64" height="64" viewBox="0 0 64 64" fill="none" xmlns="http://www.w3.org/2000/svg">
<path d="M22.6851 1.58423H41.3465C58.392 1.58423 62.4158 5.63967 62.4158 22.6852V41.3466C62.4158 58.3921 58.3603 62.4159 41.3148 62.4159H22.6534C5.60787 62.4159 1.58411 58.3605 1.58411 41.3149V22.6535C1.58411 5.63967 5.63955 1.58423 22.6851 1.58423Z" fill="#203836"/>
<mask id="mask0_22_229" style="mask-type:luminance" maskUnits="userSpaceOnUse" x="1" y="1" width="62" height="62">
<path d="M22.6851 1.58423H41.3465C58.392 1.58423 62.4158 5.63967 62.4158 22.6852V41.3466C62.4158 58.3921 58.3603 62.4159 41.3148 62.4159H22.6534C5.60787 62.4159 1.58411 58.3605 1.58411 41.3149V22.6535C1.58411 5.63967 5.63955 1.58423 22.6851 1.58423Z" fill="white"/>
</mask>
<g mask="url(#mask0_22_229)">
<path d="M0 0H64V64H0V0Z" fill="#203836"/>
</g>
<path fill-rule="evenodd" clip-rule="evenodd" d="M51.3901 22.5267C51.6752 21.5762 51.3901 20.9109 50.0594 20.9109H45.6238C44.4832 20.9109 43.9762 21.5129 43.6911 22.1782C43.6911 22.1782 41.4416 27.6911 38.2416 31.2396C37.196 32.2851 36.7525 32.602 36.1822 32.602C35.897 32.602 35.4851 32.2851 35.4851 31.3347V22.5267C35.4851 21.3861 35.1683 20.9109 34.2178 20.9109H27.2475C26.5505 20.9109 26.1069 21.4495 26.1069 21.9247C26.1069 23.002 27.6911 23.2554 27.8812 26.2337V32.7604C27.8812 34.1861 27.6277 34.4396 27.0574 34.4396C25.5683 34.4396 21.8931 28.9267 19.7386 22.5901C19.295 21.4178 18.8832 20.9109 17.7426 20.9109H13.3069C12.0396 20.9109 11.7861 21.5129 11.7861 22.1782C11.7861 23.3505 13.2752 29.1802 18.7881 36.8792C22.4634 42.1386 27.6277 44.9901 32.3168 44.9901C35.1366 44.9901 35.4851 44.3564 35.4851 43.2792V39.2871C35.4851 38.0198 35.7386 37.7663 36.6574 37.7663C37.3228 37.7663 38.4317 38.0832 41.0614 40.6178C44.0713 43.6277 44.5782 44.9901 46.2574 44.9901H50.6931C51.9604 44.9901 52.5941 44.3564 52.2139 43.1208C51.802 41.8851 50.3762 40.0792 48.4752 37.9247C47.4297 36.6891 45.8772 35.3901 45.4337 34.7247C44.7683 33.8693 44.9584 33.4891 45.4337 32.7604C45.4337 32.7287 50.8515 25.1247 51.3901 22.5267Z" fill="#6BBDB6"/>
</svg>
