<svg width="64" height="64" viewBox="0 0 64 64" fill="none" xmlns="http://www.w3.org/2000/svg">
<path d="M60.0243 30.702C60.0294 30.702 60.0332 30.702 60.0384 30.702C60.3955 30.702 60.736 30.5523 60.9779 30.2899C61.2236 30.0236 61.3452 29.6665 61.3132 29.3056C60.0281 15.1705 48.8371 3.97564 34.7008 2.68796C34.3424 2.6598 33.9814 2.77628 33.7152 3.02332C33.4489 3.26908 33.3004 3.61596 33.3043 3.9782C33.527 22.7635 36.0051 30.4396 60.0243 30.702ZM60.0243 33.2979C36.0051 33.5603 33.5283 41.2364 33.3056 60.0217C33.3017 60.384 33.4502 60.7308 33.7164 60.9766C33.9545 61.1955 34.2656 61.3171 34.5856 61.3171C34.624 61.3171 34.6636 61.3158 34.702 61.312C48.8384 60.0243 60.0294 48.8307 61.3132 34.6944C61.3452 34.3334 61.2249 33.9763 60.9779 33.71C60.7308 33.4438 60.3865 33.312 60.0243 33.2979ZM29.2134 2.69436C15.1219 4.01916 3.96667 15.2115 2.68795 29.3081C2.65595 29.6691 2.77627 30.0262 3.02331 30.2924C3.26523 30.5548 3.60699 30.7033 3.96283 30.7033C3.96795 30.7033 3.97307 30.7033 3.97819 30.7033C27.918 30.4281 30.3897 22.7558 30.615 3.98332C30.6188 3.62108 30.4691 3.27292 30.2028 3.02716C29.934 2.7814 29.5744 2.66108 29.2134 2.69436ZM3.97691 33.2966C3.57883 33.2518 3.26651 33.4412 3.02203 33.7075C2.77627 33.9737 2.65467 34.3308 2.68667 34.6918C3.96539 48.7884 15.1219 59.9808 29.2134 61.3056C29.2531 61.3094 29.294 61.3107 29.3337 61.3107C29.6537 61.3107 29.9635 61.1904 30.2016 60.9715C30.4678 60.7257 30.6176 60.3776 30.6137 60.0153C30.3884 41.2441 27.918 33.5718 3.97691 33.2966Z" fill="#203836"/>
</svg>
