<svg width="64" height="64" viewBox="0 0 64 64" fill="none" xmlns="http://www.w3.org/2000/svg">
<g clip-path="url(#clip0_22_241)">
<path fill-rule="evenodd" clip-rule="evenodd" d="M25.563 40.2757V22.3179C31.9381 25.3176 36.8755 28.2155 42.7151 31.3397C37.8987 34.0108 31.9381 37.0078 25.563 40.2757ZM61.0912 13.3866C59.9915 11.9378 58.1173 10.81 56.1219 10.4366C50.2568 9.32285 13.6672 9.31968 7.80529 10.4366C6.20515 10.7366 4.78028 11.4616 3.55626 12.5882C-1.60116 17.375 0.0149318 43.0456 1.25807 47.2038C1.78082 49.0037 2.45661 50.3017 3.30768 51.1538C4.40419 52.2803 5.90549 53.056 7.62995 53.4038C12.4591 54.4027 37.3377 54.9612 56.0198 53.5538C57.7411 53.2538 59.2647 52.4532 60.4664 51.2788C65.235 46.5111 64.9099 19.3989 61.0912 13.3866Z" fill="#203836"/>
</g>
<defs>
<clipPath id="clip0_22_241">
<rect width="64" height="64" fill="white"/>
</clipPath>
</defs>
</svg>
