<svg width="216" height="65" viewBox="0 0 216 65" fill="none" xmlns="http://www.w3.org/2000/svg">
<path d="M3.76858 43C3.54124 43 3.36558 42.938 3.24158 42.814C3.11758 42.6693 3.05558 42.4937 3.05558 42.287V22.044C3.05558 21.8167 3.11758 21.641 3.24158 21.517C3.36558 21.3723 3.54124 21.3 3.76858 21.3H10.8056C12.9342 21.3 14.6496 21.6203 15.9516 22.261C17.2536 22.9017 18.2042 23.8523 18.8036 25.113C19.4029 26.353 19.7129 27.8823 19.7336 29.701C19.7542 30.631 19.7646 31.4473 19.7646 32.15C19.7646 32.8527 19.7542 33.6587 19.7336 34.568C19.6922 36.4693 19.3719 38.0503 18.7726 39.311C18.1939 40.551 17.2639 41.481 15.9826 42.101C14.7219 42.7003 13.0479 43 10.9606 43H3.76858ZM6.09358 40.365H10.8056C12.2316 40.365 13.3682 40.1687 14.2156 39.776C15.0629 39.3833 15.6726 38.753 16.0446 37.885C16.4372 37.017 16.6439 35.87 16.6646 34.444C16.7059 33.824 16.7266 33.2867 16.7266 32.832C16.7266 32.3567 16.7266 31.8917 16.7266 31.437C16.7266 30.9617 16.7059 30.4243 16.6646 29.825C16.6232 27.8203 16.1479 26.3427 15.2386 25.392C14.3292 24.4207 12.7999 23.935 10.6506 23.935H6.09358V40.365ZM31.8686 43.31C30.112 43.31 28.6033 43.0103 27.3426 42.411C26.082 41.791 25.1106 40.8507 24.4286 39.59C23.7466 38.3087 23.3643 36.707 23.2816 34.785C23.261 33.8757 23.2506 33.0077 23.2506 32.181C23.2506 31.3337 23.261 30.4553 23.2816 29.546C23.3643 27.6447 23.757 26.0637 24.4596 24.803C25.183 23.5217 26.175 22.571 27.4356 21.951C28.717 21.3103 30.1946 20.99 31.8686 20.99C33.5633 20.99 35.041 21.3103 36.3016 21.951C37.583 22.571 38.5853 23.5217 39.3086 24.803C40.032 26.0637 40.4246 27.6447 40.4866 29.546C40.528 30.4553 40.5486 31.3337 40.5486 32.181C40.5486 33.0077 40.528 33.8757 40.4866 34.785C40.4246 36.707 40.0423 38.3087 39.3396 39.59C38.6576 40.8507 37.6863 41.791 36.4256 42.411C35.165 43.0103 33.646 43.31 31.8686 43.31ZM31.8686 40.675C33.46 40.675 34.7516 40.1997 35.7436 39.249C36.7563 38.2983 37.304 36.7587 37.3866 34.63C37.428 33.7 37.4486 32.8733 37.4486 32.15C37.4486 31.406 37.428 30.5793 37.3866 29.67C37.3453 28.244 37.0766 27.0867 36.5806 26.198C36.1053 25.3093 35.4646 24.6583 34.6586 24.245C33.8526 23.8317 32.9226 23.625 31.8686 23.625C30.856 23.625 29.9466 23.8317 29.1406 24.245C28.3346 24.6583 27.6836 25.3093 27.1876 26.198C26.7123 27.0867 26.4436 28.244 26.3816 29.67C26.361 30.5793 26.3506 31.406 26.3506 32.15C26.3506 32.8733 26.361 33.7 26.3816 34.63C26.4643 36.7587 27.012 38.2983 28.0246 39.249C29.0373 40.1997 30.3186 40.675 31.8686 40.675ZM45.4391 43C45.2325 43 45.0568 42.938 44.9121 42.814C44.7881 42.6693 44.7261 42.4937 44.7261 42.287V22.044C44.7261 21.8167 44.7881 21.641 44.9121 21.517C45.0568 21.3723 45.2325 21.3 45.4391 21.3H46.9891C47.2371 21.3 47.4231 21.362 47.5471 21.486C47.6711 21.61 47.7435 21.7133 47.7641 21.796L54.3361 34.32L60.9391 21.796C60.9805 21.7133 61.0528 21.61 61.1561 21.486C61.2801 21.362 61.4661 21.3 61.7141 21.3H63.2331C63.4605 21.3 63.6361 21.3723 63.7601 21.517C63.9048 21.641 63.9771 21.8167 63.9771 22.044V42.287C63.9771 42.4937 63.9048 42.6693 63.7601 42.814C63.6361 42.938 63.4605 43 63.2331 43H61.7141C61.5075 43 61.3318 42.938 61.1871 42.814C61.0631 42.6693 61.0011 42.4937 61.0011 42.287V27.035L55.8241 37.141C55.7415 37.3477 55.6175 37.513 55.4521 37.637C55.2868 37.7403 55.0801 37.792 54.8321 37.792H53.8711C53.6025 37.792 53.3855 37.7403 53.2201 37.637C53.0755 37.513 52.9515 37.3477 52.8481 37.141L47.6711 27.035V42.287C47.6711 42.4937 47.5988 42.6693 47.4541 42.814C47.3301 42.938 47.1648 43 46.9581 43H45.4391Z" fill="#203836"/>
<path d="M111.482 43.31C109.519 43.31 107.834 42.9897 106.429 42.349C105.044 41.7083 103.959 40.768 103.174 39.528C102.409 38.288 101.986 36.7483 101.903 34.909C101.882 34.0617 101.872 33.1523 101.872 32.181C101.872 31.2097 101.882 30.2797 101.903 29.391C101.986 27.593 102.42 26.074 103.205 24.834C103.99 23.5733 105.086 22.6227 106.491 21.982C107.896 21.3207 109.56 20.99 111.482 20.99C112.846 20.99 114.107 21.1657 115.264 21.517C116.421 21.8477 117.434 22.3437 118.302 23.005C119.17 23.6457 119.842 24.431 120.317 25.361C120.813 26.2703 121.071 27.3037 121.092 28.461C121.113 28.647 121.051 28.802 120.906 28.926C120.782 29.05 120.627 29.112 120.441 29.112H116.256C115.987 29.112 115.781 29.0603 115.636 28.957C115.491 28.833 115.367 28.616 115.264 28.306C114.975 27.2107 114.499 26.4667 113.838 26.074C113.197 25.6607 112.402 25.454 111.451 25.454C110.314 25.454 109.415 25.7743 108.754 26.415C108.093 27.035 107.731 28.0787 107.669 29.546C107.607 31.2407 107.607 32.9767 107.669 34.754C107.731 36.2213 108.093 37.2753 108.754 37.916C109.415 38.536 110.314 38.846 111.451 38.846C112.402 38.846 113.208 38.6393 113.869 38.226C114.53 37.8127 114.995 37.0687 115.264 35.994C115.347 35.684 115.46 35.4773 115.605 35.374C115.77 35.25 115.987 35.188 116.256 35.188H120.441C120.627 35.188 120.782 35.25 120.906 35.374C121.051 35.498 121.113 35.653 121.092 35.839C121.071 36.9963 120.813 38.04 120.317 38.97C119.842 39.8793 119.17 40.6647 118.302 41.326C117.434 41.9667 116.421 42.4627 115.264 42.814C114.107 43.1447 112.846 43.31 111.482 43.31ZM124.786 43C124.558 43 124.372 42.9277 124.228 42.783C124.083 42.6383 124.011 42.4523 124.011 42.225V22.075C124.011 21.8477 124.083 21.6617 124.228 21.517C124.372 21.3723 124.558 21.3 124.786 21.3H128.878C129.084 21.3 129.26 21.3723 129.405 21.517C129.57 21.6617 129.653 21.8477 129.653 22.075V38.319H139.015C139.242 38.319 139.428 38.4017 139.573 38.567C139.738 38.7117 139.821 38.8977 139.821 39.125V42.225C139.821 42.4523 139.738 42.6383 139.573 42.783C139.428 42.9277 139.242 43 139.015 43H124.786ZM142.942 43C142.714 43 142.528 42.9277 142.384 42.783C142.239 42.6383 142.167 42.4523 142.167 42.225V22.075C142.167 21.8477 142.239 21.6617 142.384 21.517C142.528 21.3723 142.714 21.3 142.942 21.3H157.419C157.646 21.3 157.832 21.3723 157.977 21.517C158.121 21.6617 158.194 21.8477 158.194 22.075V24.989C158.194 25.2163 158.121 25.4023 157.977 25.547C157.832 25.6917 157.646 25.764 157.419 25.764H147.53V29.949H156.737C156.964 29.949 157.15 30.0317 157.295 30.197C157.439 30.3417 157.512 30.5277 157.512 30.755V33.452C157.512 33.6587 157.439 33.8447 157.295 34.01C157.15 34.1547 156.964 34.227 156.737 34.227H147.53V38.536H157.667C157.894 38.536 158.08 38.6083 158.225 38.753C158.369 38.8977 158.442 39.0837 158.442 39.311V42.225C158.442 42.4523 158.369 42.6383 158.225 42.783C158.08 42.9277 157.894 43 157.667 43H142.942ZM160.384 43C160.219 43 160.064 42.938 159.919 42.814C159.795 42.6693 159.733 42.5143 159.733 42.349C159.733 42.2457 159.744 42.1527 159.764 42.07L167.049 22.168C167.111 21.9407 167.235 21.7443 167.421 21.579C167.628 21.393 167.907 21.3 168.258 21.3H172.846C173.198 21.3 173.466 21.393 173.652 21.579C173.859 21.7443 173.993 21.9407 174.055 22.168L181.309 42.07C181.351 42.1527 181.371 42.2457 181.371 42.349C181.371 42.5143 181.299 42.6693 181.154 42.814C181.03 42.938 180.875 43 180.689 43H176.876C176.566 43 176.329 42.9277 176.163 42.783C176.019 42.6177 175.926 42.473 175.884 42.349L174.675 39.187H166.398L165.22 42.349C165.179 42.473 165.086 42.6177 164.941 42.783C164.797 42.9277 164.549 43 164.197 43H160.384ZM167.669 34.723H173.435L170.521 26.539L167.669 34.723ZM184.249 43C184.022 43 183.836 42.9277 183.691 42.783C183.546 42.6383 183.474 42.4523 183.474 42.225V22.075C183.474 21.8477 183.546 21.6617 183.691 21.517C183.836 21.3723 184.022 21.3 184.249 21.3H187.535C187.886 21.3 188.134 21.3827 188.279 21.548C188.444 21.6927 188.548 21.8063 188.589 21.889L196.153 33.824V22.075C196.153 21.8477 196.225 21.6617 196.37 21.517C196.515 21.3723 196.701 21.3 196.928 21.3H200.648C200.875 21.3 201.061 21.3723 201.206 21.517C201.351 21.6617 201.423 21.8477 201.423 22.075V42.225C201.423 42.4317 201.351 42.6177 201.206 42.783C201.061 42.9277 200.875 43 200.648 43H197.331C197 43 196.752 42.9173 196.587 42.752C196.442 42.5867 196.349 42.473 196.308 42.411L188.744 30.941V42.225C188.744 42.4523 188.672 42.6383 188.527 42.783C188.382 42.9277 188.196 43 187.969 43H184.249Z" fill="#203836"/>
<rect x="88.5" y="1.5" width="126" height="62" stroke="#3D6B67" stroke-width="3"/>
</svg>
